<?xml version="1.0" encoding="UTF-8" standalone="no"?>
<!DOCTYPE svg PUBLIC "-//W3C//DTD SVG 1.1//EN" "http://www.w3.org/Graphics/SVG/1.1/DTD/svg11.dtd">
<svg width="100%" height="100%" viewBox="0 0 1024 1024" version="1.1" xmlns="http://www.w3.org/2000/svg" xmlns:xlink="http://www.w3.org/1999/xlink" xml:space="preserve" xmlns:serif="http://www.serif.com/" style="fill-rule:evenodd;clip-rule:evenodd;stroke-linejoin:round;stroke-miterlimit:2;">
    <g transform="matrix(0.950957,0,0,1,44.5311,0)">
        <path d="M908,274.904L908,759.096C908,846.798 833.125,918 740.901,918L239.099,918C146.875,918 72,846.798 72,759.096L72,274.904C72,187.202 146.875,116 239.099,116L740.901,116C833.125,116 908,187.202 908,274.904ZM373.903,408.274C374.395,407.837 374.874,407.381 375.34,406.904C386.007,395.988 385.348,378.89 373.869,368.746L279.891,285.697C268.412,275.553 250.432,276.18 239.765,287.096C229.098,298.012 229.757,315.11 241.236,325.254L313.384,389.012L240.701,456.122C229.458,466.502 229.193,483.61 240.109,494.301C251.025,504.993 269.015,505.245 280.257,494.864L372.301,409.878C372.862,409.36 373.396,408.825 373.903,408.274ZM579.909,476C579.909,461.098 567.187,449 551.517,449L423.225,449C407.555,449 394.833,461.098 394.833,476C394.833,490.902 407.555,503 423.225,503L551.517,503C567.187,503 579.909,490.902 579.909,476Z"/>
    </g>
</svg>
