<?xml version="1.0" encoding="UTF-8" standalone="no"?>
<!DOCTYPE svg PUBLIC "-//W3C//DTD SVG 1.1//EN" "http://www.w3.org/Graphics/SVG/1.1/DTD/svg11.dtd">
<svg width="100%" height="100%" viewBox="0 0 1024 1024" version="1.1" xmlns="http://www.w3.org/2000/svg" xmlns:xlink="http://www.w3.org/1999/xlink" xml:space="preserve" xmlns:serif="http://www.serif.com/" style="fill-rule:evenodd;clip-rule:evenodd;stroke-linejoin:round;stroke-miterlimit:2;">
    <g transform="matrix(3.76,0,0,3.81405,49.52,58.128099)">
        <path d="M185.969,44.505C185.113,109.757 158.181,206.692 213.402,196.013C234.121,192.006 233.975,166.953 235.411,166.336C236.613,165.819 243.454,165.629 243.664,167.463C244.667,176.225 233.834,246.027 176.428,233.802C133.21,224.598 142.878,165.48 142.921,164.525C144.783,123.544 155.846,40.006 152.359,38.928C151.713,38.728 102.194,38.757 101.615,38.918C99.307,39.559 98.431,65.472 95.434,96.494C88.61,167.141 88.509,240.872 44.573,235.055C34.975,233.785 9.648,218.342 28.86,190.749C41.849,172.094 75.787,138.004 77.657,41.5C77.693,39.64 77.378,36.733 54.551,38.925C19.898,42.254 16.305,74.204 9.494,73.837C8.985,73.809 3.473,73.512 3.236,72.625C3.156,72.326 16.021,34.786 22.899,24.77C39.664,0.356 68.451,2.054 240.496,2.933C242.57,2.944 243.336,3.201 243.376,5.503C243.896,35.944 244.386,36.011 243.626,38.542C243.23,39.859 242.623,39.863 192.5,39.448C192.038,39.444 187.265,39.405 186.733,39.797C185.838,40.457 186.25,40.621 185.969,44.505Z" style="fill-opacity:1;"/>
    </g>
</svg>
