<?xml version="1.0" encoding="UTF-8" standalone="no"?>
<!DOCTYPE svg PUBLIC "-//W3C//DTD SVG 1.1//EN" "http://www.w3.org/Graphics/SVG/1.1/DTD/svg11.dtd">
<svg width="100%" height="100%" viewBox="0 0 1024 1024" version="1.1" xmlns="http://www.w3.org/2000/svg" xmlns:xlink="http://www.w3.org/1999/xlink" xml:space="preserve" xmlns:serif="http://www.serif.com/" style="fill-rule:evenodd;clip-rule:evenodd;stroke-linejoin:round;stroke-miterlimit:2;">
    <g transform="matrix(1.086667,0,0,1.086667,6.826667,53.16)">
        <path d="M547.507,1.949C554.663,5.575 561.037,3.069 569.016,22.662C570.367,29.91 570.593,29.818 570.59,41.503C569.955,54.436 567.628,56.67 561.151,63.018C555.36,67.207 556.984,68.389 556.99,75.5L557.058,143.494C557.051,296.764 556.435,304.478 558.224,307.644C559.447,309.809 565.493,321.471 566.118,322.677C577.019,342.772 576.946,342.735 588.156,362.713C608.433,399.479 608.446,399.447 610.186,402.655C614.645,410.579 630.54,439.418 632.304,442.618C639.559,455.553 639.479,455.584 640.118,456.702C641.199,458.655 643.09,462.121 643.348,462.592C643.667,463.183 653.496,481.025 654.358,482.573C654.838,483.454 657.986,489.233 660.409,493.553C660.867,494.363 664.168,500.198 666.082,503.716C667.211,505.793 675.418,520.891 680.381,529.565C683.547,535.482 687.555,542.558 688.191,543.68C689.875,546.716 703.859,571.924 709.167,581.668C710.945,584.859 720.859,602.653 731.255,621.643C736.204,630.691 736.24,630.588 741.238,639.635L743.017,642.806C748.292,652.71 748.386,652.553 753.74,662.379C756.962,668.246 759.907,673.56 760.445,674.531C762.73,678.658 762.703,678.598 765.039,682.724C770.355,692.36 770.518,692.221 774.8,702.377C781.216,722.113 782.073,737.608 769.06,761.195C765.516,766.558 765.543,766.497 761.443,771.452C757.095,776.539 757.022,776.385 752.097,781.007C746.895,785.376 746.815,785.177 741.304,789.213C719.804,802.241 713.941,799.773 710.57,800.84C710.075,800.996 709.994,801.811 709.499,801.967L705.5,801.966C196.494,801.934 196.545,802.289 194.501,801.968C193.992,801.888 193.92,801.007 193.428,800.854C190.286,799.878 184.216,802.293 162.754,789.133C157.628,785.313 157.697,785.391 152.618,781.361C147.396,776.587 147.443,776.64 142.719,771.32C138.476,765.93 138.517,766.022 134.776,760.331C121.268,735.092 123.141,722.57 128.836,702.637C133.202,692.283 133.381,692.448 138.769,682.634C140.886,678.712 143.34,674.354 143.743,673.637C144.223,672.755 146.945,667.745 149.811,662.655C152.912,656.906 159.92,644.28 160.805,642.685L162.944,638.726C167.459,630.655 167.459,630.765 171.84,622.705C177.485,612.731 177.401,612.772 182.895,602.719C188.497,592.68 188.42,592.734 193.97,582.729C194.732,581.35 201.509,569.098 203.539,565.523C209.749,554.116 209.857,554.242 215.985,542.805C229.837,518.201 233.516,511.024 238.39,502.445L242.717,494.629C244.063,492.259 248.908,483.444 249.443,482.47L260.457,462.474L262.992,457.751C266.916,450.706 266.872,450.792 270.821,443.683C277.006,432.721 276.866,432.727 282.962,421.766C287.965,412.746 287.933,412.847 292.92,403.72C298.492,393.684 298.462,393.781 303.962,383.749C304.903,382.06 312.335,368.73 315.664,362.598C318.506,357.43 330.592,335.86 337.694,322.594L343.518,311.51C346.086,306.236 346.73,306.382 346.734,300.497C346.746,281.856 346.883,71.946 346.852,67.485C346.852,67.415 347.577,66.87 340.705,61.306C335.194,55.104 333.675,52.261 333.136,42.513C333.13,30.309 332.937,30.322 334.783,22.6C341.656,4.084 351.918,3.932 353.397,3.229C353.888,2.996 354.011,2.263 354.503,2.029C363.719,1.881 494.447,2.02 547.507,1.949ZM357.928,37.5C357.942,39.93 355.84,52.485 365.477,55.57C368.576,56.562 372.008,55 372.082,58.51C372.138,61.162 372.087,295.861 372.082,316.5C372.08,327.283 370.847,327.085 365.765,336.639C290.134,478.821 181.841,674.825 176.615,688.545C158.488,736.137 200.517,771.568 239.5,772.36C273.093,773.043 273.082,772.359 659.5,772.356C662.719,772.356 683.085,774.144 705.235,761.039C710.797,757.748 750.389,734.324 725.036,682.726C723.186,678.961 693.207,623.57 679.96,599.255C630.104,507.74 561.302,379.855 551.026,360.754C531.632,324.705 531.936,324.573 531.835,323.471C531.669,321.665 531.774,83.378 531.783,62.5C531.783,62.012 531.786,57.049 532.458,56.441C532.884,56.056 543.989,57.116 545.582,46.511C545.77,45.253 547.001,37.056 545.106,30.623C542.484,21.724 537.966,23.108 492.5,23.108C366.819,23.108 366.612,22.924 363.513,24.524C356.707,28.039 357.933,37.308 357.928,37.5ZM504.051,70.45C504.14,88.93 505.148,296.405 503.612,301.454C499.894,313.676 481.278,312.371 481.089,297.427C481.072,296.062 481.084,104.905 481.081,78.42C481.08,76.367 478.684,60.189 492.502,59.57C501.463,59.169 503.767,69.213 504.051,70.45ZM704.034,698.51C704.174,733.659 672.714,750.758 641.501,751.049C639.415,751.069 299.26,751.05 269.5,751.048C232.674,751.046 190.935,716.684 215.826,668.664C217.951,664.565 326.257,465.629 336.962,445.75C352.01,417.806 351.56,417.461 353.579,415.586C357.413,412.026 401.693,443.16 468.351,409.209C514.639,385.633 532.591,359.331 555.015,401.753C566.486,423.455 691.821,660.569 697.628,673.442C702.82,684.951 703.85,696.448 704.034,698.51ZM389.489,565.499C387.767,567.85 382.087,573.049 379.246,586.448C370.572,627.359 424.544,660.359 457.236,625.262C489.057,591.1 452.16,536.098 408.673,551.993C402.882,554.11 397.5,558.903 400.829,553.638C417.485,527.293 378.772,496.996 356.571,524.556C339.77,545.413 364.822,576.065 387.488,565.219C388.516,564.727 388.429,565.351 389.489,565.499ZM493.528,504.047C525.739,501.147 505.916,460.558 484.884,475.975C477.341,481.504 474.041,500.643 493.528,504.047Z"/>
    </g>
</svg>
