<?xml version="1.0" encoding="UTF-8" standalone="no"?>
<!DOCTYPE svg PUBLIC "-//W3C//DTD SVG 1.1//EN" "http://www.w3.org/Graphics/SVG/1.1/DTD/svg11.dtd">
<svg width="100%" height="100%" viewBox="0 0 1024 1024" version="1.1" xmlns="http://www.w3.org/2000/svg" xmlns:xlink="http://www.w3.org/1999/xlink" xml:space="preserve" xmlns:serif="http://www.serif.com/" style="fill-rule:evenodd;clip-rule:evenodd;stroke-linejoin:round;stroke-miterlimit:2;">
    <g transform="matrix(3.17772,0,0,3.17772,-123.89357,-123.314004)">
        <path d="M292.498,107.051C294.921,107.153 313.333,107.923 322.232,112.97C367.95,138.9 303.592,200.401 303.578,200.517C303.385,202.005 335.532,233.694 337.124,257.532C340.888,313.889 254.704,288.862 252.468,288.789C247.156,288.616 247.601,320.408 220.372,346.359C210.598,355.674 192.423,357.961 179.612,346.375C159.96,328.602 152.777,300.373 149.122,288.66C148.601,286.99 147.888,287.71 133.453,290.246C63.541,302.527 50.914,268.373 68.995,234.776C79.3,215.629 96.857,200.652 96.395,198.536C96.199,197.64 54.702,158.191 63.76,128.586C75.342,90.731 147.28,111.457 148.388,111.161C150.086,110.708 162.182,58.522 188.689,47.986C231.294,31.05 250.697,110.851 250.853,111.349C252.144,115.469 255.688,108.459 292.498,107.051ZM197.449,342.947C203.015,343.135 223.725,343.83 239.569,287.518C240.547,284.041 237.795,285.483 215.527,276.436C200.966,270.52 200.82,268.614 195.676,270.906C164.918,284.613 158.977,282.108 160.153,286.585C165.848,308.274 178.633,335.106 191.692,341.119C194.494,342.409 194.423,342.464 197.449,342.947ZM250.043,181.521C249.65,173.547 249.587,173.221 249.45,172.512C248.667,168.444 203.87,144.317 201.47,143.582C197.569,142.388 157.657,165.904 151.821,169.921C148.02,172.538 150.065,225.658 150.516,227.496C151.589,231.876 196.241,255.7 198.537,256.398C202.315,257.546 236.82,237.298 248.132,230.003C251.132,228.068 250.405,197.377 250.043,181.521ZM169.96,204.465C167.889,162.709 214.171,162.967 225.53,183.481C242.093,213.392 212.774,234.849 193.452,229.683C172.852,224.176 170.744,207.638 169.96,204.465ZM197.466,181.03C171.043,184.65 178.991,224.666 204.555,218.693C225.081,213.897 224.794,179.512 197.466,181.03ZM284.514,283.048C290.362,283.134 367.248,289.363 298.06,211.923C292.944,206.197 292.31,211.407 286.163,216.084C278.418,221.977 278.637,222.142 270.797,227.898C260.746,235.278 260.188,235.136 259.911,237.549C257.71,256.667 257.427,256.551 254.124,275.454C253.593,278.492 261.172,279.294 263.445,279.758C277.767,282.685 283.731,282.954 284.514,283.048ZM197.448,57.053C178.911,60.148 166.992,93.313 166.157,95.362C158.779,113.47 159.381,114.264 160.824,115.022C163.552,116.455 164.26,114.456 196.701,129.056C203.501,132.117 203.391,128.062 235.448,117.347C238.882,116.199 240.73,116.891 239.802,113.425C232.255,85.23 216.971,56.876 200.484,56.876C198.125,56.876 198.091,57.016 197.448,57.053ZM140.017,236.559C139.81,236.02 140.087,234.864 137.221,232.892C120.797,221.592 121.355,221.026 106.218,207.897C104.538,206.439 101.253,210.689 100.512,211.511C28.286,291.499 116.76,281.42 122.536,280.762C145.576,278.137 146.006,276.364 145.659,274.479C143.247,261.392 142.453,261.604 140.017,236.559ZM281.541,118.944C267.201,120.534 253.788,122.219 254.312,125.523C254.366,125.858 255.874,130.726 258.762,151.462C260.251,162.156 258.079,163.61 264.2,167.92C279.086,178.402 290.658,189.146 292.819,191.153C295.967,194.075 300.175,187.582 303.72,183.7C306.472,180.686 328.58,156.476 327.375,138.505C325.798,114.981 291.407,118.282 281.541,118.944ZM112.52,117.046C110.104,116.959 92.095,116.309 82.682,121.834C81.435,122.565 73.488,127.229 73.682,137.498C73.756,141.418 74.047,156.812 95.817,181.221C102.605,188.832 103.734,192.44 107.889,188.943C137.448,164.064 139.7,165.765 140.066,162.45C144.065,126.259 146.522,126.503 145.88,123.412C145.411,121.15 126.828,117.745 112.52,117.046ZM247.07,148.556C246.823,146.944 244.339,130.74 243.548,128.482C242.774,126.275 241.438,126.162 215.397,136.372C212.982,137.319 216.449,138.74 220.741,141.055C240.975,151.969 240.352,152.881 246.577,156.288C249.01,157.62 247.112,148.821 247.07,148.556ZM153.063,252.554C154.848,264.23 155.687,273.364 158.54,272.874C161.621,272.346 185.019,263.764 185.161,263.262C185.755,261.155 183.601,262.515 161.778,249.046C157.747,246.558 151.607,241.515 152.044,245.487C152.107,246.055 152.12,246.011 153.063,252.554ZM246.925,252.555C247.992,245.178 248.07,245.232 248.077,244.588C248.082,244.186 247.609,243.528 243.306,246.173C232.534,252.796 213.945,262.364 213.789,262.629C212.468,264.867 238.245,272.99 240.447,273.683C243.342,274.596 243.902,272.983 246.925,252.555ZM153.065,147.444C152.164,153.16 150.746,157.672 154.739,154.936C162.859,149.373 187.053,137.937 186.225,136.647C185.964,136.241 157.907,124.211 156.93,126.755C155.973,129.247 153.331,145.782 153.065,147.444ZM121.29,192.243C115.6,196.763 112.873,198.833 114.517,200.485C116.269,202.244 137.046,220.447 138.494,219.492C139.096,219.095 137.815,194.525 138.799,182.512C139.324,176.109 133.911,182.326 121.29,192.243ZM279.726,206.77C284.006,203.296 284.758,202.57 285.168,202.174C287.689,199.738 280.896,195.457 263.213,180.925C263.012,180.76 260.827,179.084 261.247,183.51C262.196,193.534 260.706,219.821 261.618,220.267C263.197,221.041 278.358,207.951 279.726,206.77Z"/>
    </g>
</svg>
