<?xml version="1.0" encoding="UTF-8" standalone="no"?>
<!DOCTYPE svg PUBLIC "-//W3C//DTD SVG 1.1//EN" "http://www.w3.org/Graphics/SVG/1.1/DTD/svg11.dtd">
<svg width="100%" height="100%" viewBox="0 0 1024 1024" version="1.1" xmlns="http://www.w3.org/2000/svg" xmlns:xlink="http://www.w3.org/1999/xlink" xml:space="preserve" xmlns:serif="http://www.serif.com/" style="fill-rule:evenodd;clip-rule:evenodd;stroke-linejoin:round;stroke-miterlimit:2;">
    <g transform="matrix(1,0,0,1,37,37)">
        <path d="M524.5,267.129C585.469,267.718 586.3,273.557 589.426,270.424C593.155,266.686 559.026,107.818 650.722,13.723C669.558,-5.607 698.294,2.395 708.33,20.595C724.474,49.875 697.385,67.837 688.779,81.676C679.311,96.903 678.792,98.099 681.853,101.14C729.375,148.621 776.897,196.101 824.419,243.581C850.455,269.62 850.718,270.991 853.544,269.601C882.721,255.25 884.481,242.833 901.62,237.928C936.378,227.98 963.69,273.085 936.24,299.241C923.331,311.54 887.474,345.946 809.479,358.377C744.09,368.799 699.624,361.424 681.508,360.19C677.215,359.898 679.539,362.58 680.459,375.504C681.64,392.087 689.951,466.223 667.252,534.422C602.721,728.304 365.518,674.643 360.558,679.561C359.333,680.776 363.021,704.72 363.602,731.498C364.167,757.558 366.958,868.446 298.271,937.264C279.882,955.688 247.472,948.137 238.881,923.368C229.921,897.533 249.79,884.599 259.154,871.24C271.531,853.582 270.567,852.019 269.59,850.434C269.322,850.001 135.017,715.771 113.56,694.439C102.911,683.852 99.523,678.903 96.456,680.4C76.162,690.306 65.975,701.756 63.077,704.021C23.077,735.291 -17.928,681.613 13.744,650.743C107.606,559.257 266.218,593.523 270.372,589.372C273.038,586.708 256.888,511.013 277.733,431.558C320.293,269.338 477.651,267.623 524.5,267.129ZM377.269,390.295C383.201,383.855 384.765,381.575 396.144,373.026C397.752,371.818 414.973,358.879 418.214,360.977C419.039,361.511 565.366,508.156 568.594,511.406C586.036,528.963 590.182,531.438 588.704,534.596C577.263,559.043 558.52,573.423 555.136,576.02C534.596,591.779 532.38,589.684 530.798,588.188C530.697,588.093 454.087,511.419 442.345,499.658C363.657,420.842 361.207,418.732 360.781,417.437C359.529,413.625 375.731,392.317 377.269,390.295ZM216.504,659.261C253.274,660.142 283.917,664.804 284.63,666.434C284.799,666.819 290.241,695.555 290.839,732.494C290.883,735.211 291.367,765.048 290.414,766.457C288.705,768.983 288.535,765.651 262.473,740.527C256.568,734.834 257.031,734.416 190.027,667.975C185.631,663.616 180.502,659.682 184.502,659.51C198.217,658.919 213.945,659.213 216.504,659.261ZM754.504,290.744C747.524,290.855 706.517,291.507 667.44,284.767C665.243,284.388 664.63,283.784 661.869,257.464C661.137,250.478 658.131,224.65 659.467,184.493C659.497,183.583 660.453,181.959 662.175,183.873C665.62,187.703 758.902,281.117 766.082,287.858C767.76,289.434 766.572,290.217 766.406,290.327C766.157,290.491 756.217,290.691 754.504,290.744ZM343.856,585.457C342.684,575.287 342.823,575.351 341.053,554.53C339.156,532.23 340.577,502.663 340.643,502.587C341.924,501.101 345.439,505.694 345.874,506.124C364.178,524.238 416.624,576.723 418.469,578.53C420.816,580.827 447.419,606.867 447.6,607.453C448.492,610.352 446.588,609.311 443.496,609.425C435.884,609.705 394.173,611.24 348.453,603.729C346.982,603.487 346.196,603.273 343.856,585.457ZM604.908,356.449C611.591,398.584 609.802,446.878 609.35,447.411C608.118,448.861 603.768,443.562 584.097,423.898C580.64,420.442 580.696,420.514 561.982,402.02C557.596,397.685 524.835,365.309 507.493,347.507C505.554,345.518 499.609,340.728 503.515,340.572C553.973,338.562 602.519,345.315 603.481,347.509C603.66,347.916 603.612,347.93 604.908,356.449Z" style="fill:white;fill-opacity:1;"/>
    </g>
</svg>
